<?xml version="1.0" encoding="UTF-8"?>
<svg width="76px" height="24px" viewBox="0 0 76 24" version="1.1" xmlns="http://www.w3.org/2000/svg" xmlns:xlink="http://www.w3.org/1999/xlink">
    <!-- Generator: Sketch 59.1 (86144) - https://sketch.com -->
    <title>Frame(1)</title>
    <desc>Created with Sketch.</desc>
    <g id="Page-1" stroke="none" stroke-width="1" fill="none" fill-rule="evenodd">
        <g id="Artboard" transform="translate(-323.000000, -343.000000)" fill="#ffffff">
            <g id="Frame(1)" transform="translate(323.000000, 343.000000)">
                <path d="M55.2511,0.989106 C54.0368,0.519026 52.1107,0 49.7292,0 C43.6494,0 39.3681,3.16343 39.3418,7.68618 C39.2913,11.0231 42.4071,12.8764 44.7375,13.9891 C47.1194,15.126 47.9291,15.8681 47.9291,16.8815 C47.9048,18.4379 46.0044,19.1553 44.2318,19.1553 C41.7739,19.1553 40.4569,18.7854 38.4554,17.9195 L37.6447,17.5483 L36.7832,22.7635 C38.2271,23.4054 40.8874,23.975 43.6494,24 C50.1093,24 54.3149,20.8855 54.3647,16.0658 C54.3893,13.4211 52.744,11.3946 49.1969,9.73863 C47.0436,8.67561 45.7249,7.95883 45.7249,6.87118 C45.7502,5.8824 46.8403,4.86964 49.271,4.86964 C51.2725,4.82004 52.743,5.28946 53.857,5.75921 L54.4138,6.00591 L55.2511,0.989106 Z M32.9331,23.6535 L26.7766,23.6535 L30.6273,0.420898 L36.7835,0.420898 L32.9331,23.6535 Z M65.8918,8.92273 C65.8918,8.92273 63.9409,14.0884 63.4339,15.423 L68.5511,15.423 C68.2979,14.2615 67.1321,8.70034 67.1321,8.70034 L66.7018,6.69848 C66.521,7.21301 66.2596,7.92004 66.0829,8.39803 L66.082,8.4005 L66.0819,8.40056 L66.0818,8.40093 L66.0811,8.40275 C65.9618,8.72566 65.8815,8.94273 65.8918,8.92273 Z M66.2712,0.420898 L71.0333,0.420898 L76.0001,23.6532 L70.2997,23.6532 C70.2997,23.6532 69.7419,20.9838 69.5651,20.1682 L61.6607,20.1682 L60.3686,23.6532 L53.9087,23.6532 L63.0534,2.34852 C63.687,0.840718 64.8027,0.420898 66.2712,0.420898 Z M21.6345,0.420898 L15.6052,16.2633 L14.9464,13.0503 C14.9462,13.0498 14.9461,13.0492 14.9459,13.0487 L12.7931,2.37381 C12.4386,0.889992 11.3492,0.469845 10.0066,0.420898 L0.101335,0.420898 L0,0.89032 C2.41583,1.49311 4.57658,2.36173 6.46984,3.44175 L11.9572,23.6289 L18.4675,23.6289 L28.1445,0.420898 L21.6345,0.420898 Z" id="Shape"></path>
            </g>
        </g>
    </g>
</svg>