<?xml version="1.0" encoding="UTF-8"?>
<svg width="100px" height="24px" viewBox="0 0 100 24" version="1.1" xmlns="http://www.w3.org/2000/svg" xmlns:xlink="http://www.w3.org/1999/xlink">
    <!-- Generator: Sketch 59.1 (86144) - https://sketch.com -->
    <title>Frame 34</title>
    <desc>Created with Sketch.</desc>
    <g id="Page-1" stroke="none" stroke-width="1" fill="none" fill-rule="evenodd">
        <g id="Artboard" transform="translate(-183.000000, -343.000000)" fill="#ffffff">
            <g id="Frame-34" transform="translate(183.000000, 343.000000)">
                <path d="M14.0045,8.71066 C12.8825,7.13706 11.3298,6.35025 9.34636,6.35025 C7.24267,6.35025 5.6549,7.19289 4.58302,8.87817 L4.4027,8.87817 C4.52292,7.33503 4.58302,6.2132 4.58302,5.51269 L4.58302,0 L0,0 L0,23.6954 L3.50113,23.6954 L4.26747,21.8223 L4.58302,21.8223 C5.70498,23.2741 7.25269,24 9.22615,24 C11.2196,24 12.7924,23.2284 13.9444,21.6853 C15.1064,20.1421 15.6875,17.9645 15.6875,15.1523 C15.6875,12.4213 15.1265,10.2741 14.0045,8.71066 Z M5.39444,11.132 C5.91535,10.4213 6.7418,10.066 7.87378,10.066 C8.84548,10.066 9.61182,10.4873 10.1728,11.3299 C10.7338,12.1624 11.0143,13.4162 11.0143,15.0914 C11.0143,16.7665 10.7338,18.0457 10.1728,18.9289 C9.62184,19.802 8.87553,20.2386 7.93388,20.2386 C6.77185,20.2386 5.92036,19.8426 5.37941,19.0508 C4.84848,18.2589 4.58302,16.9492 4.58302,15.1218 L4.58302,14.6193 C4.60306,12.9949 4.87353,11.8325 5.39444,11.132 Z M24.1473,10.599 C24.6982,9.96954 25.4596,9.65482 26.4313,9.65482 C27.403,9.65482 28.1743,9.96954 28.7453,10.599 C29.3163,11.2183 29.6118,12.1015 29.6319,13.2487 L23.2006,13.2487 C23.2807,12.1015 23.5963,11.2183 24.1473,10.599 Z M20.7363,21.731 C22.259,23.2437 24.3727,24 27.0774,24 C28.3897,24 29.5016,23.8985 30.4132,23.6954 C31.3248,23.5025 32.1813,23.203 32.9827,22.797 L32.9827,19.203 C32.001,19.67 31.0594,20.0102 30.1578,20.2234 C29.2562,20.4365 28.2995,20.5431 27.2878,20.5431 C25.9855,20.5431 24.9737,20.1726 24.2524,19.4315 C23.5312,18.6904 23.1455,17.6599 23.0954,16.3401 L33.9294,16.3401 L33.9294,14.0863 C33.9294,11.6701 33.2682,9.77665 31.9459,8.40609 C30.6236,7.03553 28.7754,6.35025 26.4012,6.35025 C23.9169,6.35025 21.9684,7.13198 20.556,8.69543 C19.1535,10.2487 18.4523,12.4518 18.4523,15.3046 C18.4523,18.0761 19.2136,20.2183 20.7363,21.731 Z M75.7176,2.26904 C75.7176,0.756345 76.549,0 78.2119,0 C79.8748,0 80.7063,0.756345 80.7063,2.26904 C80.7063,2.98985 80.4959,3.5533 80.0752,3.95939 C79.6645,4.35533 79.0434,4.5533 78.2119,4.5533 C76.549,4.5533 75.7176,3.79188 75.7176,2.26904 Z M80.4959,23.6954 L75.9129,23.6954 L75.9129,6.67005 L80.4959,6.67005 L80.4959,23.6954 Z M44.538,11.9086 L43.0053,11.9086 L43.0053,5.29949 L45.124,5.29949 C46.3963,5.29949 47.3279,5.56345 47.9189,6.09137 C48.52,6.61929 48.8205,7.43655 48.8205,8.54315 C48.8205,9.63959 48.4649,10.4772 47.7536,11.0558 C47.0424,11.6244 45.9705,11.9086 44.538,11.9086 Z M51.2998,13.8731 C52.7824,12.6041 53.5237,10.7716 53.5237,8.37563 C53.5237,6.07107 52.8275,4.3401 51.4351,3.18274 C50.0527,2.01523 48.0291,1.43147 45.3644,1.43147 L38.3472,1.43147 L38.3472,23.6954 L43.0053,23.6954 L43.0053,15.7766 L45.0038,15.7766 C47.7286,15.7766 49.8273,15.1421 51.2998,13.8731 Z M67.0925,21.3807 L67.979,23.6954 L71.1796,23.6954 L71.1796,12.3503 C71.1796,10.3198 70.5786,8.80711 69.3765,7.81218 C68.1744,6.81726 66.4463,6.3198 64.1924,6.3198 C61.8383,6.3198 59.6945,6.83249 57.7611,7.85787 L59.2788,10.9949 C61.092,10.1726 62.6697,9.76142 64.0121,9.76142 C65.7551,9.76142 66.6267,10.6244 66.6267,12.3503 L66.6267,13.0964 L63.7116,13.1878 C61.1972,13.2792 59.3139,13.7563 58.0617,14.6193 C56.8195,15.4721 56.1984,16.802 56.1984,18.6091 C56.1984,20.335 56.6592,21.665 57.5808,22.599 C58.5125,23.533 59.7847,24 61.3975,24 C62.7098,24 63.7717,23.8122 64.5831,23.4365 C65.4045,23.0508 66.2009,22.3655 66.9723,21.3807 L67.0925,21.3807 Z M64.8536,15.868 L66.6267,15.8071 L66.6267,17.2081 C66.6267,18.2335 66.3061,19.0558 65.665,19.6751 C65.0339,20.2944 64.1874,20.6041 63.1255,20.6041 C61.6429,20.6041 60.9016,19.9492 60.9016,18.6396 C60.9016,17.7259 61.2272,17.0457 61.8783,16.599 C62.5295,16.1523 63.5212,15.9086 64.8536,15.868 Z M85.9805,21.67 C87.1125,23.2234 88.6652,24 90.6387,24 C92.7724,24 94.3602,23.1624 95.402,21.4873 L95.5974,21.4873 L96.4839,23.6954 L100,23.6954 L100,0 L95.402,0 L95.402,5.45178 C95.402,6.4467 95.5172,7.57868 95.7476,8.84772 L95.5974,8.84772 C94.4854,7.18274 92.8726,6.35025 90.7589,6.35025 C88.7454,6.35025 87.1626,7.13198 86.0106,8.69543 C84.8686,10.2487 84.2976,12.4213 84.2976,15.2132 C84.2976,17.9645 84.8586,20.1168 85.9805,21.67 Z M94.816,19.264 C94.275,19.9543 93.4185,20.2995 92.2465,20.2995 C91.1846,20.2995 90.3682,19.8832 89.7972,19.0508 C89.2262,18.2081 88.9407,16.9492 88.9407,15.2741 C88.9407,13.599 89.2212,12.3249 89.7822,11.4518 C90.3532,10.5685 91.1496,10.1269 92.1714,10.1269 C93.4236,10.1269 94.3251,10.5228 94.8761,11.3147 C95.4371,12.1066 95.7176,13.4162 95.7176,15.2437 L95.7176,15.7462 C95.6675,17.401 95.367,18.5736 94.816,19.264 Z" id="Shape"></path>
            </g>
        </g>
    </g>
</svg>