<?xml version="1.0" encoding="UTF-8"?>
<svg width="40px" height="24px" viewBox="0 0 40 24" version="1.1" xmlns="http://www.w3.org/2000/svg" xmlns:xlink="http://www.w3.org/1999/xlink">
    <!-- Generator: Sketch 59.1 (86144) - https://sketch.com -->
    <title>Frame</title>
    <desc>Created with Sketch.</desc>
    <g id="Page-1" stroke="none" stroke-width="1" fill="none" fill-rule="evenodd">
        <g id="Artboard" transform="translate(-112.000000, -345.000000)" fill="#ffffff">
            <g id="Frame" transform="translate(112.000000, 345.000000)">
                <path d="M20.7008,2.72727 C22.7493,0.981818 25.3369,0 28.1402,0 C34.717,0 40,5.45455 40,12 C40,18.5455 34.6092,24 28.1402,24 C25.3369,24 22.7493,23.0182 20.7008,21.2727 C22.3181,19.7455 23.504,17.8909 24.1509,15.7091 L23.1806,15.7091 C22.5337,17.5636 21.4555,19.3091 20.0539,20.6182 C18.6523,19.3091 17.4663,17.5636 16.9272,15.7091 L15.9569,15.7091 C16.6038,17.7818 17.7898,19.7455 19.2992,21.2727 C17.2507,22.9091 14.6631,24 11.8598,24 C5.39084,24 0,18.5455 0,12 C0,5.45455 5.28302,0 11.8598,0 C14.6631,0 17.2507,1.09091 19.2992,2.72727 C17.6819,4.25455 16.6038,6.10909 15.9569,8.29091 L16.9272,8.29091 C17.5741,6.43636 18.6523,4.69091 20.0539,3.38182 C21.4555,4.69091 22.6415,6.32727 23.1806,8.29091 L24.1509,8.29091 C23.3962,6.21818 22.2102,4.25455 20.7008,2.72727 Z M6.03774,11.1273 L5.39084,14.8364 L6.79245,14.8364 L7.7628,9.49091 L5.8221,9.49091 L4.31267,12.7636 L4.09704,9.49091 L2.15633,9.49091 L1.07817,14.8364 L2.26415,14.8364 L3.01887,10.9091 L3.2345,14.8364 L4.42049,14.8364 L6.03774,11.1273 Z M9.48787,14.6182 L9.59569,14.8364 L10.7817,14.8364 L11.1051,12.5455 C11.1051,12.4731 11.1091,12.3913 11.1133,12.3032 C11.1477,11.5945 11.202,10.4727 9.38005,10.4727 C9.0566,10.4727 8.73315,10.4727 7.87062,10.5818 L7.7628,11.5636 C7.91292,11.5636 8.15592,11.5401 8.41637,11.515 C8.71712,11.4859 9.04112,11.4545 9.27224,11.4545 C9.32724,11.4545 9.38225,11.4528 9.43613,11.451 C9.80474,11.4391 10.121,11.4289 10.027,12 C9.94582,12.0205 9.80744,12.0217 9.63407,12.0233 C8.88594,12.0298 7.48632,12.0422 7.22372,13.6364 C7.1159,14.5091 7.97844,14.9455 8.51752,14.9455 C9.0566,14.8545 9.22132,14.7636 9.38604,14.6727 C9.41899,14.6545 9.45193,14.6364 9.48787,14.6182 Z M12.3989,14.8364 C12.7224,14.8364 14.124,14.8364 14.3396,13.5273 C14.5553,12.8727 14.2318,12.5455 13.6927,12.3273 C13.4672,12.2512 13.2417,12.1221 13.0527,12.0139 C12.9707,11.967 12.8955,11.9239 12.8302,11.8909 C12.5067,11.7818 12.3989,11.3455 12.8302,11.2364 L12.8302,11.2364 C13.1536,11.2364 13.6927,11.2364 14.0162,11.3455 L14.3396,10.4727 C13.8029,10.2917 13.4146,10.336 13.2363,10.3563 C13.1997,10.3605 13.172,10.3636 13.1536,10.3636 C12.938,10.3636 11.5364,10.3636 11.3208,11.4545 C11.2129,12.3273 11.4286,12.6545 11.752,12.7636 C12.0047,12.8914 12.2203,13.0193 12.3989,13.1251 C12.5252,13.2 12.6331,13.2639 12.7224,13.3091 C13.0458,13.4182 12.938,13.9636 12.6146,13.9636 C12.5984,13.9636 12.5655,13.9661 12.5192,13.9695 C12.2561,13.9889 11.5636,14.0401 11.1051,13.8545 L10.9973,14.7273 C11.5364,14.8364 11.9677,14.8364 12.3989,14.8364 Z M16.3056,14.6855 C16.3656,14.6637 16.4284,14.641 16.496,14.6182 L16.7116,13.7455 C16.0647,13.8545 15.9569,13.5273 16.0647,13.2 L16.3881,11.4545 L16.9272,11.4545 L17.1429,10.4727 L16.496,10.4727 L16.7116,9.27273 L15.5256,9.27273 L14.6631,13.5273 C14.4474,14.7273 15.31,14.8364 15.6334,14.8364 C15.8894,14.8364 16.0778,14.7681 16.3056,14.6855 Z M20.0898,13.6646 C19.8023,13.697 19.3711,13.7455 19.0836,13.7455 C19.0517,13.7455 19.018,13.7461 18.983,13.7467 C18.5454,13.7544 17.9056,13.7658 18.0054,12.6545 L20.593,12.6545 C20.5966,12.6288 20.6005,12.602 20.6045,12.5742 C20.7199,11.7754 20.9553,10.1455 18.9757,10.1455 C17.2528,10.1455 16.8895,11.6932 16.7542,12.2695 C16.7371,12.3423 16.7237,12.3996 16.7116,12.4364 C16.7116,12.7636 16.7116,14.7273 18.7601,14.7273 C19.1914,14.7273 19.9461,14.6182 20.2695,14.5091 L20.3774,13.6364 C20.3414,13.6364 20.2336,13.6485 20.0898,13.6646 Z M21.8868,14.9455 L22.2102,12.8727 C22.615,11.5418 23.1147,11.556 23.3529,11.5628 C23.3685,11.5632 23.383,11.5636 23.3962,11.5636 L23.7197,10.4727 C23.1806,10.4727 22.7493,10.6909 22.6415,10.9091 L22.6415,10.4727 L21.5633,10.4727 L20.7008,14.9455 L21.8868,14.9455 Z M27.062,14.5091 L26.7385,13.4182 C25.5526,13.8545 24.69,13.2 24.5822,12.1091 C24.7978,10.9091 25.7682,10.5818 26.0916,10.5818 C26.6307,10.5818 26.7385,10.5818 26.9542,10.6909 L27.8167,9.81818 C27.4933,9.49091 27.1698,9.16364 26.1995,9.16364 C25.3369,9.16364 23.9353,9.81818 23.504,11.4545 C22.965,13.7455 24.2588,14.8364 25.5526,14.8364 C26.1241,14.8364 26.6115,14.6661 26.9403,14.5511 C26.9837,14.536 27.0243,14.5218 27.062,14.5091 Z M29.6496,14.6182 L29.7574,14.8364 L30.8356,15.0545 L31.2668,12.6545 C31.2668,12.5821 31.2708,12.5004 31.2751,12.4123 C31.3094,11.7036 31.3637,10.5818 29.5418,10.5818 C29.2183,10.5818 28.8949,10.5818 28.0323,10.6909 L27.9245,11.6727 C28.0746,11.6727 28.3176,11.6492 28.5781,11.624 C28.8788,11.595 29.2028,11.5636 29.434,11.5636 C29.489,11.5636 29.544,11.5619 29.5979,11.5601 C29.9665,11.5482 30.2827,11.538 30.1887,12.1091 C30.1584,12.1091 30.112,12.1062 30.0525,12.1025 C29.4773,12.0669 27.6786,11.9556 27.3854,13.6364 C27.2776,14.5091 28.1402,14.9455 28.6792,14.9455 C29.2183,14.8545 29.3831,14.7636 29.5478,14.6727 C29.5807,14.6545 29.6137,14.6364 29.6496,14.6182 Z M32.5606,14.8364 L32.8841,12.7636 C33.2858,11.5444 33.781,11.5553 34.1084,11.5626 C34.1325,11.5631 34.1557,11.5636 34.1779,11.5636 L34.5014,10.3636 C33.9623,10.3636 33.6388,10.5818 33.4232,10.8 L33.3154,10.3636 L32.2372,10.3636 L31.3747,14.8364 L32.5606,14.8364 Z M35.4717,14.8364 C35.903,14.8364 36.3342,14.6182 36.5499,14.5091 L36.6577,14.8364 L37.9515,14.9455 L39.0297,9.27273 L37.7359,9.27273 L37.4124,11.0182 C37.3157,10.9529 37.2382,10.8779 37.1627,10.8048 C36.9859,10.6335 36.8199,10.4727 36.4421,10.4727 C36.3882,10.4727 36.3314,10.4712 36.2721,10.4696 C35.6194,10.4523 34.6721,10.4271 34.1779,12.3273 C33.8545,13.6364 34.6092,14.8364 35.4717,14.8364 Z M19.0836,11.2363 C18.6524,11.2363 18.2211,11.4545 18.1133,12.1091 L19.6227,12.1091 C19.6227,11.6727 19.5149,11.2363 19.0836,11.2363 Z M8.73312,12.9816 C8.40967,13.3089 8.19403,13.7452 8.6253,13.8543 C8.94875,13.9634 9.59565,13.7452 9.70347,13.3089 L9.81128,12.8725 C9.75882,12.8725 9.69359,12.8596 9.61871,12.8448 L9.61867,12.8448 L9.61862,12.8447 L9.61861,12.8447 C9.38571,12.7986 9.05941,12.734 8.73312,12.9816 Z M36.0107,13.5273 C35.6872,13.5273 35.3638,12.9818 35.4716,12.4364 C35.6872,11.4546 36.5498,11.1273 36.8732,11.5637 C37.0888,11.7818 37.0888,12.3273 36.981,12.6546 C36.7654,13.2 36.4419,13.5273 36.0107,13.5273 Z M28.895,12.9816 C28.5715,13.3089 28.3559,13.7452 28.7872,13.8543 C29.1106,13.9634 29.7575,13.7452 29.8653,13.3089 L29.9731,12.8725 C29.9207,12.8725 29.8554,12.8596 29.7805,12.8447 C29.5476,12.7986 29.2213,12.734 28.895,12.9816 Z" id="Shape"></path>
            </g>
        </g>
    </g>
</svg>