<svg width="98" height="70" viewBox="0 0 98 70" fill="none" xmlns="http://www.w3.org/2000/svg">
<g opacity="0.5">
<g clip-path="url(#clip0)">
<path d="M14.544 42.576C11.6 42.576 9.104 42.08 7.056 41.088C5.008 40.064 3.264 38.752 1.824 37.152L6.624 32.304C8.896 34.864 11.696 36.144 15.024 36.144C16.816 36.144 18.144 35.776 19.008 35.04C19.872 34.304 20.304 33.328 20.304 32.112C20.304 31.184 20.048 30.416 19.536 29.808C19.024 29.168 17.984 28.736 16.416 28.512L13.104 28.08C9.552 27.632 6.944 26.56 5.28 24.864C3.648 23.168 2.832 20.912 2.832 18.096C2.832 16.592 3.12 15.216 3.696 13.968C4.272 12.72 5.088 11.648 6.144 10.752C7.232 9.856 8.544 9.168 10.08 8.688C11.648 8.176 13.424 7.92 15.408 7.92C17.936 7.92 20.16 8.32 22.08 9.12C24 9.92 25.648 11.088 27.024 12.624L22.176 17.52C21.376 16.592 20.4 15.84 19.248 15.264C18.128 14.656 16.704 14.352 14.976 14.352C13.344 14.352 12.128 14.64 11.328 15.216C10.528 15.792 10.128 16.592 10.128 17.616C10.128 18.768 10.432 19.6 11.04 20.112C11.68 20.624 12.704 20.992 14.112 21.216L17.424 21.744C20.88 22.288 23.44 23.36 25.104 24.96C26.768 26.528 27.6 28.768 27.6 31.68C27.6 33.28 27.312 34.752 26.736 36.096C26.16 37.44 25.312 38.592 24.192 39.552C23.104 40.512 21.744 41.264 20.112 41.808C18.48 42.32 16.624 42.576 14.544 42.576ZM55.9691 50.832H51.4571C48.8651 50.832 46.9771 50.224 45.7931 49.008C44.6091 47.792 44.0171 46.032 44.0171 43.728V42.336C40.4331 41.696 37.5851 39.952 35.4731 37.104C33.3931 34.224 32.3531 30.272 32.3531 25.248C32.3531 22.4 32.7051 19.904 33.4091 17.76C34.1131 15.584 35.1051 13.776 36.3851 12.336C37.6651 10.864 39.2171 9.76 41.0411 9.024C42.8651 8.288 44.8811 7.92 47.0891 7.92C49.2971 7.92 51.3131 8.288 53.1371 9.024C54.9611 9.76 56.5131 10.864 57.7931 12.336C59.0731 13.776 60.0651 15.584 60.7691 17.76C61.4731 19.904 61.8251 22.4 61.8251 25.248C61.8251 30.112 60.8331 33.968 58.8491 36.816C56.8971 39.664 54.2251 41.456 50.8331 42.192V44.88H55.9691V50.832ZM47.0891 36.096C49.2971 36.096 51.0091 35.376 52.2251 33.936C53.4731 32.496 54.0971 30.432 54.0971 27.744V22.752C54.0971 20.064 53.4731 18 52.2251 16.56C51.0091 15.12 49.2971 14.4 47.0891 14.4C44.8811 14.4 43.1531 15.12 41.9051 16.56C40.6891 18 40.0811 20.064 40.0811 22.752V27.744C40.0811 30.432 40.6891 32.496 41.9051 33.936C43.1531 35.376 44.8811 36.096 47.0891 36.096ZM87.1016 42L84.7016 34.032H73.5176L71.1176 42H63.7256L74.7656 8.496H83.7896L94.6856 42H87.1016ZM79.1816 15.12H78.9416L75.2456 27.84H82.9256L79.1816 15.12Z" fill="white"/>
<path d="M1.386 55.436H6.12C6.948 55.436 7.704 55.568 8.388 55.832C9.072 56.096 9.654 56.492 10.134 57.02C10.614 57.536 10.986 58.19 11.25 58.982C11.514 59.762 11.646 60.674 11.646 61.718C11.646 62.762 11.514 63.68 11.25 64.472C10.986 65.252 10.614 65.906 10.134 66.434C9.654 66.95 9.072 67.34 8.388 67.604C7.704 67.868 6.948 68 6.12 68H1.386V55.436ZM6.12 65.57C6.936 65.57 7.578 65.342 8.046 64.886C8.514 64.43 8.748 63.698 8.748 62.69V60.746C8.748 59.738 8.514 59.006 8.046 58.55C7.578 58.094 6.936 57.866 6.12 57.866H4.122V65.57H6.12ZM22.8088 68L21.9088 65.012H17.7148L16.8148 68H14.0428L18.1828 55.436H21.5668L25.6528 68H22.8088ZM19.8388 57.92H19.7488L18.3628 62.69H21.2428L19.8388 57.92ZM31.0035 68V63.086L26.7015 55.436H29.7615L32.4615 60.44H32.4975L35.0895 55.436H38.0595L33.7575 63.068V68H31.0035ZM44.6919 68.216C43.5879 68.216 42.6519 68.03 41.8839 67.658C41.1159 67.274 40.4619 66.782 39.9219 66.182L41.7219 64.364C42.5739 65.324 43.6239 65.804 44.8719 65.804C45.5439 65.804 46.0419 65.666 46.3659 65.39C46.6899 65.114 46.8519 64.748 46.8519 64.292C46.8519 63.944 46.7559 63.656 46.5639 63.428C46.3719 63.188 45.9819 63.026 45.3939 62.942L44.1519 62.78C42.8199 62.612 41.8419 62.21 41.2179 61.574C40.6059 60.938 40.2999 60.092 40.2999 59.036C40.2999 58.472 40.4079 57.956 40.6239 57.488C40.8399 57.02 41.1459 56.618 41.5419 56.282C41.9499 55.946 42.4419 55.688 43.0179 55.508C43.6059 55.316 44.2719 55.22 45.0159 55.22C45.9639 55.22 46.7979 55.37 47.5179 55.67C48.2379 55.97 48.8559 56.408 49.3719 56.984L47.5539 58.82C47.2539 58.472 46.8879 58.19 46.4559 57.974C46.0359 57.746 45.5019 57.632 44.8539 57.632C44.2419 57.632 43.7859 57.74 43.4859 57.956C43.1859 58.172 43.0359 58.472 43.0359 58.856C43.0359 59.288 43.1499 59.6 43.3779 59.792C43.6179 59.984 44.0019 60.122 44.5299 60.206L45.7719 60.404C47.0679 60.608 48.0279 61.01 48.6519 61.61C49.2759 62.198 49.5879 63.038 49.5879 64.13C49.5879 64.73 49.4799 65.282 49.2639 65.786C49.0479 66.29 48.7299 66.722 48.3099 67.082C47.9019 67.442 47.3919 67.724 46.7799 67.928C46.1679 68.12 45.4719 68.216 44.6919 68.216ZM58.3782 70.718L63.7422 54.68H65.9382L60.5742 70.718H58.3782ZM84.3754 68H75.4834V65.534L79.3534 62.222C79.7014 61.922 79.9954 61.652 80.2354 61.412C80.4754 61.16 80.6674 60.92 80.8114 60.692C80.9674 60.452 81.0754 60.218 81.1354 59.99C81.2074 59.762 81.2434 59.516 81.2434 59.252V59C81.2434 58.76 81.1954 58.55 81.0994 58.37C81.0034 58.19 80.8774 58.04 80.7214 57.92C80.5654 57.8 80.3854 57.71 80.1814 57.65C79.9894 57.59 79.7914 57.56 79.5874 57.56C79.2874 57.56 79.0234 57.608 78.7954 57.704C78.5794 57.8 78.3874 57.932 78.2194 58.1C78.0634 58.256 77.9314 58.442 77.8234 58.658C77.7154 58.862 77.6314 59.084 77.5714 59.324L75.2134 58.424C75.3574 57.992 75.5554 57.584 75.8074 57.2C76.0594 56.804 76.3714 56.462 76.7434 56.174C77.1274 55.874 77.5774 55.64 78.0934 55.472C78.6094 55.304 79.1914 55.22 79.8394 55.22C80.5234 55.22 81.1294 55.316 81.6574 55.508C82.1854 55.7 82.6294 55.964 82.9894 56.3C83.3614 56.636 83.6434 57.038 83.8354 57.506C84.0274 57.962 84.1234 58.46 84.1234 59C84.1234 59.54 84.0334 60.032 83.8534 60.476C83.6734 60.92 83.4274 61.34 83.1154 61.736C82.8154 62.12 82.4614 62.486 82.0534 62.834C81.6454 63.182 81.2194 63.536 80.7754 63.896L78.4354 65.732H84.3754V68ZM92.5224 68.216C91.7784 68.216 91.1124 68.102 90.5244 67.874C89.9364 67.634 89.4384 67.298 89.0304 66.866C88.6344 66.422 88.3284 65.894 88.1124 65.282C87.9084 64.67 87.8064 63.986 87.8064 63.23C87.8064 62.354 87.9384 61.526 88.2024 60.746C88.4784 59.954 88.8264 59.228 89.2464 58.568C89.6784 57.896 90.1584 57.296 90.6864 56.768C91.2264 56.24 91.7664 55.796 92.3064 55.436H96.0324C95.2644 55.988 94.5744 56.516 93.9624 57.02C93.3504 57.512 92.8164 58.01 92.3604 58.514C91.9164 59.018 91.5444 59.534 91.2444 60.062C90.9564 60.578 90.7524 61.136 90.6324 61.736L90.7944 61.79C90.9024 61.55 91.0284 61.316 91.1724 61.088C91.3284 60.86 91.5144 60.662 91.7304 60.494C91.9584 60.314 92.2224 60.17 92.5224 60.062C92.8224 59.954 93.1704 59.9 93.5664 59.9C94.0824 59.9 94.5624 59.996 95.0064 60.188C95.4624 60.368 95.8524 60.626 96.1764 60.962C96.5124 61.298 96.7704 61.712 96.9504 62.204C97.1424 62.684 97.2384 63.218 97.2384 63.806C97.2384 64.454 97.1244 65.048 96.8964 65.588C96.6804 66.128 96.3624 66.596 95.9424 66.992C95.5344 67.376 95.0424 67.676 94.4664 67.892C93.8904 68.108 93.2424 68.216 92.5224 68.216ZM92.5224 66.11C93.1224 66.11 93.5904 65.948 93.9264 65.624C94.2624 65.288 94.4304 64.814 94.4304 64.202V63.878C94.4304 63.266 94.2624 62.798 93.9264 62.474C93.5904 62.138 93.1224 61.97 92.5224 61.97C91.9224 61.97 91.4544 62.138 91.1184 62.474C90.7824 62.798 90.6144 63.266 90.6144 63.878V64.202C90.6144 64.814 90.7824 65.288 91.1184 65.624C91.4544 65.948 91.9224 66.11 92.5224 66.11Z" fill="white"/>
</g>
</g>
<defs>
<clipPath id="clip0">
<path d="M0 0H98V70H0V0Z" fill="white"/>
</clipPath>
</defs>
</svg>
