<?xml version="1.0" encoding="utf-8"?>
<!-- Generator: Adobe Illustrator 23.1.0, SVG Export Plug-In . SVG Version: 6.00 Build 0)  -->
<svg version="1.1" id="Layer_1" xmlns="http://www.w3.org/2000/svg" xmlns:xlink="http://www.w3.org/1999/xlink" x="0px" y="0px"
	 viewBox="0 0 96 68" style="enable-background:new 0 0 96 68;" xml:space="preserve">
<g>
	<path d="M52.2,64.9c0.1-0.2,0.1-0.3,0.2-0.5c1.2-3.7,2.5-7.4,3.7-11c0.3-0.8,0.6-1.7,0.8-2.5c0-0.1,0.1-0.1,0.1-0.2
		c0.2,0,1.7,0,2,0c0,0.1,0,0.1,0,0.2c-0.2,0.7-0.5,1.5-0.7,2.2c-1.1,3.2-2.1,6.4-3.2,9.6c-0.2,0.7-0.5,1.4-0.7,2.1c0,0,0,0.1,0,0.1
		C53.5,64.9,52.9,64.9,52.2,64.9z"/>
	<path d="M51,38.4c0,0.2,0,1.9,0,2.6c0,0,0,0.1,0,0.1c0.1,0,0.2,0,0.3,0c1.5,0,3.1,0,4.6,0c0.1,0,0.2,0,0.3,0c0,0.1,0,0.1,0,0.2
		c0,0.2,0,0.4,0,0.6c0,1.7,0,3.3,0,5c0,0.1,0,0.2,0,0.3c-0.1,0-0.1,0-0.2,0c0,0-0.1,0-0.1,0c-1.5,0-3,0-4.5,0c-1,0-2-0.1-2.9-0.4
		c-0.5-0.1-1-0.3-1.4-0.6c-1.1-0.6-1.8-1.4-2.3-2.5c-0.3-0.7-0.5-1.4-0.6-2.1c-0.1-0.6-0.1-1.3-0.1-1.9c0-0.3,0-0.7,0-1
		c0-0.1,0-0.2,0-0.2c-0.1,0-0.3-0.1-0.4-0.1c-1.6-0.3-3.2-0.9-4.6-1.8c-2.2-1.4-3.9-3.2-5-5.6c-0.6-1.3-1-2.6-1.3-4
		c-0.2-0.9-0.3-1.9-0.4-2.8C32,23,32,21.7,32,20.4c0-0.8,0.1-1.6,0.1-2.4c0.2-2.2,0.7-4.4,1.6-6.4c0.5-1.2,1.2-2.4,2-3.4
		c1.7-2.1,3.9-3.6,6.5-4.3c0.9-0.3,1.8-0.4,2.7-0.5c0.9-0.1,1.7-0.1,2.6-0.1c1.9,0,3.7,0.3,5.5,1c2.6,1,4.6,2.6,6.1,4.9
		c0.8,1.2,1.4,2.5,1.9,3.8c0.4,1.2,0.7,2.4,0.9,3.6c0.1,0.9,0.2,1.9,0.3,2.8c0.1,1,0.1,1.9,0,2.9c0,1.5-0.2,2.9-0.5,4.3
		c-0.3,1.6-0.8,3.2-1.5,4.6c-0.8,1.7-2,3.1-3.4,4.4c-1.2,1.1-2.7,1.9-4.2,2.4c-0.5,0.2-1,0.3-1.5,0.4C51.1,38.3,51,38.3,51,38.4z
		 M54.3,21C54.3,21,54.3,21,54.3,21c0-0.8,0-1.6,0-2.4c0-0.5,0-0.9,0-1.4c0-0.7-0.1-1.3-0.3-1.9c-0.2-0.9-0.5-1.7-1-2.4
		c-0.9-1.3-2-2.3-3.6-2.7c-0.6-0.2-1.3-0.3-2-0.3c-0.8,0-1.5,0-2.2,0.2c-1.8,0.4-3.2,1.5-4.1,3.1c-0.5,0.8-0.7,1.7-0.9,2.6
		c-0.2,0.9-0.2,1.8-0.2,2.7c0,1.7,0,3.4,0,5.1c0,1,0.1,2,0.3,2.9c0.2,0.8,0.4,1.7,0.9,2.4c0.7,1.3,1.8,2.3,3.2,2.8
		c0.6,0.2,1.2,0.4,1.9,0.4c1,0.1,2,0.1,2.9-0.2c1.3-0.3,2.4-1,3.3-2c0.7-0.8,1.1-1.7,1.4-2.7c0.3-1,0.5-2.1,0.5-3.1
		C54.3,23.1,54.3,22,54.3,21z"/>
	<path d="M96,38.1c-0.3,0-6.1,0.1-7.6,0c-0.1,0-0.1,0-0.2,0c-0.8-2.7-1.6-5.4-2.5-8.1c0,0,0,0,0,0c0,0,0,0,0,0c-3.7,0-7.5,0-11.2,0
		c-0.1,0-0.1,0-0.2,0c-0.1,0.1-0.1,0.2-0.1,0.2c-0.3,0.9-0.5,1.8-0.8,2.7c-0.5,1.7-1,3.3-1.5,5c0,0.1,0,0.2-0.1,0.2
		c-0.1,0-0.2,0-0.2,0c-0.5,0-1,0-1.5,0c-1.8,0-3.7,0-5.5,0c-0.1,0-0.2,0-0.3,0c0-0.1,0-0.2,0-0.2c0.3-1,0.7-2,1-3
		c0.9-2.6,1.7-5.3,2.6-7.9c1.2-3.6,2.4-7.3,3.6-10.9c1.1-3.4,2.3-6.8,3.4-10.3c0.2-0.6,0.4-1.2,0.6-1.8c0-0.1,0.1-0.2,0.1-0.2
		c0.1,0,0.1,0,0.2,0c0.1,0,0.1,0,0.2,0c2.9,0,5.7,0,8.6,0c0.1,0,0.2,0,0.3,0c0,0,0,0.1,0.1,0.1C88.6,15.3,92.3,26.7,96,38.1z
		 M76.1,23.6c0.1,0,0.2,0,0.3,0c2.4,0,4.8,0,7.3,0c0,0,0.1,0,0.1,0c0,0,0.1,0,0.1,0c0-0.3-3.8-12.8-3.8-13c-0.1,0-0.1,0-0.2,0
		c-1.2,4.3-2.5,8.6-3.8,12.9C76.1,23.5,76.1,23.5,76.1,23.6z"/>
	<path d="M0.6,33.2c1.6-1.7,3.3-3.3,4.9-5c0.1,0.1,0.1,0.1,0.2,0.2c0.6,0.7,1.3,1.3,2.1,1.8c1.3,0.9,2.8,1.5,4.5,1.8
		c0.9,0.1,1.8,0.2,2.7,0.1c0.7,0,1.3-0.1,2-0.4c0.6-0.2,1.2-0.5,1.6-1c0.5-0.6,0.9-1.2,1-2c0.1-0.6,0.1-1.3-0.1-1.9
		c-0.1-0.3-0.2-0.6-0.4-0.9c-0.3-0.4-0.6-0.8-1.1-1c-0.5-0.2-1-0.4-1.5-0.5c-0.5-0.1-1-0.2-1.5-0.2c-0.6-0.1-1.1-0.1-1.7-0.2
		c-0.4-0.1-0.8-0.1-1.3-0.2c-1.6-0.2-3.2-0.6-4.7-1.2c-0.7-0.3-1.3-0.6-1.9-1c-1.5-1-2.5-2.4-3.2-4.1c-0.3-0.7-0.4-1.5-0.5-2.2
		c-0.1-0.9-0.1-1.7-0.1-2.6c0.2-2.3,1-4.3,2.6-6c0.8-0.9,1.8-1.6,2.9-2.1c1.2-0.6,2.5-1,3.8-1.2c0.8-0.2,1.7-0.2,2.5-0.3
		c0.8,0,1.7,0,2.5,0c1.8,0.1,3.5,0.4,5.2,1.1c2,0.8,3.7,1.9,5.1,3.5c0.1,0.1,0.1,0.1,0.2,0.2c0,0,0,0,0,0.1c-1.6,1.6-3.3,3.3-4.9,5
		c0,0-0.1-0.1-0.1-0.1c-0.9-1-2-1.8-3.3-2.4c-0.6-0.3-1.3-0.5-1.9-0.6c-1-0.2-2-0.2-3-0.1c-0.6,0-1.3,0.2-1.9,0.4
		c-0.5,0.2-1,0.5-1.4,0.9c-0.4,0.4-0.7,1-0.8,1.6c-0.1,0.6,0,1.1,0.1,1.7c0,0.2,0.1,0.3,0.2,0.5c0.2,0.5,0.5,0.8,0.9,1.1
		c0.4,0.3,0.9,0.5,1.4,0.6c0.5,0.1,1,0.3,1.5,0.3c1,0.2,2,0.3,3,0.5c0.7,0.1,1.5,0.2,2.2,0.4c1.3,0.3,2.5,0.7,3.6,1.2
		c0.9,0.4,1.7,0.9,2.4,1.6c1,0.9,1.7,2,2.1,3.2c0.2,0.7,0.4,1.5,0.5,2.2c0.1,0.7,0.1,1.4,0.1,2c0,1.4-0.3,2.8-0.9,4.2
		c-0.7,1.6-1.8,2.9-3.2,3.9c-1,0.7-2,1.3-3.2,1.7c-0.8,0.3-1.6,0.5-2.4,0.6c-1.4,0.3-2.8,0.3-4.1,0.3c-1,0-2-0.1-2.9-0.2
		c-1.5-0.2-3-0.6-4.3-1.3c-1.7-0.8-3.2-1.9-4.6-3.2c-0.2-0.2-0.5-0.5-0.7-0.7C0.7,33.3,0.7,33.2,0.6,33.2z"/>
	<path d="M0,51.3c0.1,0,0.2,0,0.2,0c1.4,0,2.7,0,4.1,0c0.6,0,1.3,0.1,1.9,0.3c1.1,0.4,2,1.2,2.5,2.2c0.3,0.6,0.5,1.2,0.5,1.8
		c0.1,0.6,0.1,1.2,0.1,1.8c0,0.9-0.2,1.7-0.5,2.5c-0.3,0.6-0.6,1.2-1.2,1.7c-0.6,0.5-1.3,0.8-2.1,1c-0.4,0.1-0.8,0.1-1.2,0.1
		c-1.4,0-2.7,0-4.1,0c-0.1,0-0.2,0-0.3,0c0,0,0-0.1,0-0.1c0-3.8,0-7.5,0-11.3C0,51.4,0,51.4,0,51.3z M2.5,60.6c0,0,0.1,0,0.1,0
		c0.6,0,1.3,0,1.9,0c0.3,0,0.5-0.1,0.8-0.1c0.6-0.2,1-0.6,1.2-1.2c0.1-0.3,0.2-0.7,0.2-1c0-0.7,0-1.5,0-2.2c0-0.3-0.1-0.6-0.1-0.9
		c-0.2-0.7-0.6-1.1-1.3-1.3c-0.3-0.1-0.6-0.2-0.9-0.2c-0.6,0-1.2,0-1.8,0c0,0-0.1,0-0.1,0c0,0,0,0.1,0,0.1
		C2.5,54.3,2.5,60.3,2.5,60.6z"/>
	<path d="M14.9,60.1c-0.3,0.9-0.5,1.8-0.8,2.7c-0.2,0-0.4,0-0.6,0c-0.2,0-0.4,0-0.6,0c-0.2,0-0.4,0-0.6,0c-0.2,0-0.4,0-0.6,0
		c0,0,0-0.1,0-0.1c1.2-3.8,2.5-7.5,3.7-11.3c0,0,0,0,0-0.1c0,0,0,0,0,0c0.1,0,0.1,0,0.2,0c0.9,0,1.9,0,2.8,0
		c0.1,0.1,0.1,0.2,0.1,0.3c0.3,1,0.7,2.1,1,3.1c0.8,2.6,1.7,5.2,2.5,7.8c0,0.1,0.1,0.2,0.1,0.3c0,0-0.1,0-0.1,0c-0.8,0-1.6,0-2.4,0
		c0,0-0.1,0-0.1,0c-0.3-0.9-0.5-1.8-0.8-2.7c0,0-0.1,0-0.1,0C17.4,60.1,16.2,60.1,14.9,60.1z M18.1,57.9c0-0.1,0-0.2,0-0.2
		c-0.3-0.9-0.5-1.8-0.8-2.8c-0.1-0.4-0.2-0.8-0.4-1.2c0,0,0-0.1-0.1-0.1c0,0,0,0.1-0.1,0.1c-0.1,0.4-0.2,0.8-0.4,1.2
		c-0.3,0.9-0.5,1.9-0.8,2.8c0,0.1-0.1,0.1,0,0.2C15.7,58,17.6,58,18.1,57.9C18,58,18.1,57.9,18.1,57.9z"/>
	<path d="M43.8,52.8c-0.5,0.6-1.1,1.1-1.6,1.7c0,0-0.1-0.1-0.1-0.1c-0.3-0.3-0.6-0.5-1-0.7c-0.3-0.1-0.6-0.2-0.9-0.3
		c-0.4,0-0.8,0-1.1,0c-0.2,0-0.3,0.1-0.5,0.2C38.2,53.7,38,54,38,54.4c0,0.2,0,0.3,0,0.5c0.1,0.2,0.2,0.4,0.4,0.5
		c0.2,0.1,0.5,0.2,0.8,0.2c0.5,0.1,1,0.2,1.5,0.2c0.5,0.1,1,0.2,1.5,0.5c0.2,0.1,0.4,0.2,0.6,0.4c0.5,0.4,0.8,0.9,1,1.5
		c0.2,0.7,0.2,1.4,0,2.1c-0.3,1-0.9,1.6-1.7,2.1c-0.5,0.3-1,0.4-1.5,0.5C40,63,39.4,63,38.8,63c-1.3-0.1-2.4-0.6-3.3-1.5
		c-0.1-0.1-0.2-0.2-0.3-0.3c0,0,0-0.1,0.1-0.1c0.5-0.5,1-1,1.5-1.5c0,0,0,0,0.1-0.1c0.1,0.1,0.1,0.1,0.2,0.1c0.5,0.5,1.1,0.9,1.8,1
		c0.5,0.1,1.1,0.2,1.6,0c0.3-0.1,0.5-0.2,0.7-0.4c0.2-0.2,0.3-0.4,0.4-0.7c0-0.2,0-0.3,0-0.5c-0.1-0.4-0.3-0.7-0.6-0.8
		c-0.3-0.1-0.6-0.2-0.8-0.2c-0.5-0.1-1.1-0.1-1.6-0.2c-0.4-0.1-0.7-0.2-1.1-0.3c-1.1-0.5-1.6-1.3-1.7-2.5c-0.1-0.5,0-0.9,0.1-1.4
		c0.2-0.7,0.6-1.3,1.3-1.8c0.5-0.3,1-0.5,1.5-0.6c0.7-0.2,1.4-0.2,2.1-0.1c0.6,0.1,1.2,0.2,1.8,0.5c0.5,0.2,1,0.6,1.4,1
		C43.7,52.6,43.8,52.7,43.8,52.8z"/>
	<path d="M86.4,51.4c-0.1,0-0.1,0.1-0.2,0.1c-0.6,0.5-1.2,0.9-1.7,1.4c-0.6,0.5-1.2,1-1.7,1.7c-0.3,0.3-0.5,0.7-0.7,1
		c-0.2,0.4-0.4,0.9-0.5,1.4c0,0,0,0.1,0,0.1c0,0,0,0.1,0.1,0.1c0,0,0.1,0,0.1,0c0,0,0-0.1,0.1-0.1c0.1-0.1,0.1-0.3,0.2-0.4
		c0.4-0.7,1.1-1.1,1.9-1.2c0.6-0.1,1.2,0,1.8,0.3c0.7,0.3,1.2,0.8,1.5,1.5c0.4,0.8,0.4,1.5,0.3,2.4c0,0.3-0.1,0.7-0.3,1
		c-0.3,0.8-0.9,1.4-1.6,1.8c-0.6,0.3-1.2,0.5-1.9,0.5c-0.6,0-1.1,0-1.7-0.1c-0.7-0.2-1.4-0.5-1.9-1c-0.5-0.5-0.8-1-1-1.7
		c-0.2-0.7-0.3-1.4-0.2-2.1c0.1-1.4,0.6-2.6,1.3-3.8c0.7-1.1,1.6-2,2.6-2.8c0.1-0.1,0.2-0.1,0.4-0.1c1,0,1.9,0,2.9,0
		C86.2,51.3,86.3,51.3,86.4,51.4C86.3,51.3,86.4,51.4,86.4,51.4z M85,59.2c0-0.2,0-0.4-0.1-0.6c-0.1-0.6-0.5-1-1.1-1.2
		c-0.4-0.1-0.7-0.1-1.1,0c-0.6,0.1-1.1,0.5-1.2,1.2c-0.1,0.4-0.1,0.9,0,1.3c0.1,0.7,0.5,1.1,1.2,1.2c0.3,0.1,0.7,0.1,1,0
		c0.7-0.1,1.1-0.6,1.2-1.3C85,59.6,85,59.4,85,59.2z"/>
	<path d="M69.6,54.9c-0.7-0.3-1.4-0.5-2.1-0.8c0,0,0-0.1,0-0.1c0.3-0.8,0.8-1.6,1.5-2.1c0.6-0.4,1.2-0.6,1.9-0.7
		c0.5-0.1,1-0.1,1.6,0c0.8,0.1,1.6,0.4,2.2,1c0.5,0.5,0.7,1,0.9,1.6c0.2,0.9,0,1.8-0.4,2.6c-0.3,0.6-0.8,1.1-1.3,1.5
		c-0.6,0.5-1.2,1-1.8,1.5c-0.4,0.4-0.9,0.7-1.3,1.1c-0.1,0-0.1,0.1-0.2,0.1c0,0.1,0.1,0.1,0.1,0.1c0.1,0,0.1,0,0.2,0
		c1.6,0,3.1,0,4.7,0c0.1,0,0.2,0,0.3,0c0,0,0,0,0,0c0,0,0,0,0,0c0,0.6,0,1.2,0,1.9c0,0,0,0.1,0,0.1c0,0-0.1,0-0.1,0
		c-0.1,0-0.1,0-0.2,0c-2.5,0-5,0-7.4,0c-0.1,0-0.2,0-0.3,0c0,0,0,0,0,0c0,0,0,0,0,0c0-0.6,0-1.3,0-1.9c0-0.1,0-0.1,0-0.2
		c0.1-0.1,0.1-0.1,0.2-0.2c1-0.9,2.1-1.8,3.1-2.7c0.3-0.2,0.6-0.5,0.8-0.7c0.3-0.3,0.5-0.5,0.7-0.9c0.3-0.4,0.4-0.8,0.4-1.3
		c0-0.1,0-0.1,0-0.2c0-0.5-0.3-0.9-0.8-1.2c-0.8-0.4-1.8-0.2-2.3,0.8c-0.1,0.2-0.2,0.4-0.2,0.5C69.6,54.8,69.6,54.8,69.6,54.9z"/>
	<path d="M23.2,51.4c0.2,0,2.5,0,2.8,0c0.1,0.2,0.3,0.5,0.4,0.7c0.1,0.3,0.3,0.5,0.4,0.8c0.1,0.3,0.3,0.5,0.4,0.8
		c0.1,0.2,0.3,0.5,0.4,0.7c0.1,0.3,0.3,0.5,0.4,0.8c0.1,0.3,0.3,0.5,0.4,0.8c0.1-0.1,0.1-0.1,0.1-0.2c0.5-0.9,1-1.9,1.5-2.8
		c0.2-0.4,0.4-0.9,0.7-1.3c0-0.1,0.1-0.1,0.1-0.2c0.2,0,2.5,0,2.7,0c0,0.1-0.1,0.1-0.1,0.2c-0.5,0.8-0.9,1.6-1.4,2.5
		c-0.8,1.4-1.5,2.7-2.3,4.1c-0.1,0.1-0.1,0.3-0.1,0.4c0,1.3,0,2.6,0,3.9c0,0.1,0,0.2,0,0.3c-0.2,0-0.3,0-0.5,0c-0.2,0-0.3,0-0.5,0
		c-0.2,0-0.3,0-0.5,0c-0.2,0-0.3,0-0.5,0c-0.2,0-0.3,0-0.5,0c0-0.1,0-0.2,0-0.3c0-1.3,0-2.6,0-3.9c0-0.2,0-0.3-0.1-0.5
		c-1.2-2.2-2.4-4.3-3.7-6.5C23.2,51.5,23.2,51.4,23.2,51.4z"/>
</g>
</svg>
