<svg width="500" height="220" viewBox="0 0 500 220" fill="none" xmlns="http://www.w3.org/2000/svg">
<g opacity="0.05">
<path d="M104.825 196.676V159.557H20V124.1L95.1546 3.32411H144.337V127.424H168.651V159.557H144.337V196.676H104.825ZM53.1564 127.424H104.825V46.2604H102.062L53.1564 127.424Z" fill="#084ED4"/>
<path d="M260.276 200C235.041 200 216.344 191.228 204.187 173.684C192.029 156.14 185.951 131.579 185.951 100C185.951 68.4211 192.029 43.8596 204.187 26.3158C216.344 8.77193 235.041 0 260.276 0C285.512 0 304.209 8.77193 316.366 26.3158C328.523 43.8596 334.602 68.4211 334.602 100C334.602 131.579 328.523 156.14 316.366 173.684C304.209 191.228 285.512 200 260.276 200ZM260.276 164.82C271.328 164.82 278.973 160.757 283.21 152.632C287.446 144.506 289.564 133.056 289.564 118.283V81.7175C289.564 66.9437 287.446 55.494 283.21 47.3684C278.973 39.2428 271.328 35.1801 260.276 35.1801C249.224 35.1801 241.58 39.2428 237.343 47.3684C233.106 55.494 230.988 66.9437 230.988 81.7175V118.283C230.988 133.056 233.106 144.506 237.343 152.632C241.58 160.757 249.224 164.82 260.276 164.82Z" fill="#084ED4"/>
<path d="M436.174 196.676V159.557H351.349V124.1L426.503 3.32411H475.685V127.424H500V159.557H475.685V196.676H436.174ZM384.505 127.424H436.174V46.2604H433.411L384.505 127.424Z" fill="#084ED4"/>
</g>
<path d="M84.8252 216.676V179.557H0V144.1L75.1546 23.3241H124.337V147.424H148.651V179.557H124.337V216.676H84.8252ZM33.1564 147.424H84.8252V66.2604H82.0622L33.1564 147.424Z" fill="#85858D"/>
<path d="M240.276 220C215.041 220 196.344 211.228 184.187 193.684C172.029 176.14 165.951 151.579 165.951 120C165.951 88.4211 172.029 63.8596 184.187 46.3158C196.344 28.7719 215.041 20 240.276 20C265.512 20 284.209 28.7719 296.366 46.3158C308.523 63.8596 314.602 88.4211 314.602 120C314.602 151.579 308.523 176.14 296.366 193.684C284.209 211.228 265.512 220 240.276 220ZM240.276 184.82C251.328 184.82 258.973 180.757 263.21 172.632C267.446 164.506 269.564 153.056 269.564 138.283V101.717C269.564 86.9437 267.446 75.494 263.21 67.3684C258.973 59.2428 251.328 55.1801 240.276 55.1801C229.224 55.1801 221.58 59.2428 217.343 67.3684C213.106 75.494 210.988 86.9437 210.988 101.717V138.283C210.988 153.056 213.106 164.506 217.343 172.632C221.58 180.757 229.224 184.82 240.276 184.82Z" fill="#85858D"/>
<path d="M416.174 216.676V179.557H331.349V144.1L406.503 23.3241H455.685V147.424H480V179.557H455.685V216.676H416.174ZM364.505 147.424H416.174V66.2604H413.411L364.505 147.424Z" fill="#85858D"/>
<path d="M240.275 220C215.039 220 196.343 211.228 184.185 193.684C172.028 176.14 165.949 151.579 165.949 120C165.949 88.4211 172.028 63.8596 184.185 46.3158C196.343 28.7719 215.039 20 240.275 20C265.511 20 284.207 28.7719 296.365 46.3158C308.522 63.8596 314.601 88.4211 314.601 120C314.601 151.579 308.522 176.14 296.365 193.684C284.207 211.228 265.511 220 240.275 220ZM240.275 184.82C251.327 184.82 258.971 180.757 263.208 172.632C267.445 164.506 269.563 153.056 269.563 138.283V101.717C269.563 86.9437 267.445 75.494 263.208 67.3684C258.971 59.2428 251.327 55.1801 240.275 55.1801C229.223 55.1801 221.578 59.2428 217.342 67.3684C213.105 75.494 210.987 86.9437 210.987 101.717V138.283C210.987 153.056 213.105 164.506 217.342 172.632C221.578 180.757 229.223 184.82 240.275 184.82Z" fill="#084ED4"/>
<path d="M236.667 100H250L243.333 140H230L236.667 100Z" fill="#084ED4"/>
<path opacity="0.1" d="M256.667 80H270L263.333 120H250L256.667 80Z" fill="#084ED4"/>
</svg>
