<svg width="230" height="290" viewBox="0 0 230 290" fill="none" xmlns="http://www.w3.org/2000/svg">
<path fill-rule="evenodd" clip-rule="evenodd" d="M180 0H0V290H230V50L180 0Z" fill="#084ED4"/>
<path opacity="0.3" d="M230 50L180 50L180 -4.37114e-06L230 50Z" fill="#0B0C1B"/>
<rect x="50" y="199" width="130" height="10" fill="white"/>
<rect x="60" y="221" width="110" height="10" fill="white"/>
<path fill-rule="evenodd" clip-rule="evenodd" d="M115 61C102.896 61 93.1035 70.7092 92.9996 82.8121L83 82.7263C83.151 65.1342 97.407 51 115 51C132.553 51 147 65.104 147 82.7692C147 88.0249 144.619 92.6241 141.705 96.3146C138.774 100.027 134.991 103.222 131.412 105.786C127.805 108.37 124.229 110.439 121.571 111.856C121.006 112.157 120.479 112.431 120 112.675V143H110V106.28L112.977 104.966L112.979 104.965L112.98 104.964L113.024 104.945C113.063 104.927 113.127 104.898 113.214 104.858C113.387 104.779 113.652 104.655 113.993 104.491C114.678 104.162 115.67 103.67 116.866 103.032C119.271 101.75 122.444 99.9097 125.588 97.6575C128.759 95.3852 131.726 92.8162 133.857 90.1174C136.005 87.3966 137 84.9376 137 82.7692C137 70.7383 127.143 61 115 61ZM110 168V157H120V168H110Z" fill="white"/>
</svg>
